<svg width="280" height="187" viewBox="0 0 280 187" fill="none" xmlns="http://www.w3.org/2000/svg">
    <path d="M189.089 56.8817C186.432 61.6319 180.613 62.2848 171.291 61.3819C164.28 60.7018 157.886 60.1754 150.874 56.3457C145.966 53.6672 142.082 50.0432 139.246 46.5232C136.174 42.71 131.885 38.3581 133.987 34.0347C136.877 28.0956 153.585 23.0933 169.809 31.2733C187.631 40.2618 191.689 52.2388 189.089 56.8817Z"
          fill="url(#paint0_linear_3009_752)"/>
    <path d="M235.562 95.813C225.695 100.716 212.599 94.4115 212.599 94.4115C212.599 94.4115 215.509 80.1596 225.382 75.263C235.249 70.3595 248.34 76.6577 248.34 76.6577C248.34 76.6577 245.429 90.9096 235.562 95.813Z"
          fill="url(#paint1_linear_3009_752)"/>
    <path d="M58.8661 61.7033C63.8327 64.6853 70.9581 61.9287 70.9581 61.9287C70.9581 61.9287 70.0263 54.3386 65.0566 51.36C60.0904 48.378 52.9678 51.1313 52.9678 51.1313C52.9678 51.1313 53.8996 58.7213 58.8661 61.7033Z"
          fill="url(#paint2_linear_3009_752)"/>
    <path d="M218.52 111.297C215.933 111.297 213.836 113.398 213.836 115.989C213.836 118.581 215.933 120.682 218.52 120.682C221.107 120.682 223.204 118.581 223.204 115.989C223.204 113.398 221.107 111.297 218.52 111.297Z"
          fill="#6FC8AD"/>
    <path d="M62.5084 75.8428C60.3788 75.8428 58.6524 77.5722 58.6524 79.7056C58.6524 81.8389 60.3788 83.5684 62.5084 83.5684C64.6379 83.5684 66.3643 81.8389 66.3643 79.7056C66.3643 77.5722 64.6379 75.8428 62.5084 75.8428Z"
          fill="#F6C294"/>
    <path d="M81.7083 149.365C79.283 149.365 77.3169 147.395 77.3169 144.966C77.3169 142.536 79.283 140.566 81.7083 140.566C84.1335 140.566 86.0996 142.536 86.0996 144.966C86.0996 147.395 84.1335 149.365 81.7083 149.365Z"
          fill="#F9E15F"/>
    <path d="M194.224 94.3325C193.092 94.3325 192.175 93.4133 192.175 92.2795C192.175 91.1457 193.092 90.2266 194.224 90.2266C195.356 90.2266 196.273 91.1457 196.273 92.2795C196.273 93.4133 195.356 94.3325 194.224 94.3325Z"
          fill="#F6C294"/>
    <path d="M73.6836 41.2106C72.2284 41.2106 71.0488 40.0289 71.0488 38.5711C71.0488 37.1134 72.2284 35.9316 73.6836 35.9316C75.1387 35.9316 76.3184 37.1134 76.3184 38.5711C76.3184 40.0289 75.1387 41.2106 73.6836 41.2106Z"
          fill="#E1E4E5"/>
    <path d="M50.2547 108.639C48.1528 108.639 46.4489 106.932 46.4489 104.826C46.4489 102.721 48.1528 101.014 50.2547 101.014C52.3566 101.014 54.0605 102.721 54.0605 104.826C54.0605 106.932 52.3566 108.639 50.2547 108.639Z"
          fill="#F4865A"/>
    <path d="M157.207 154.157C155.607 154.157 154.311 152.858 154.311 151.255C154.311 149.653 155.607 148.354 157.207 148.354C158.807 148.354 160.104 149.653 160.104 151.255C160.104 152.858 158.807 154.157 157.207 154.157Z"
          fill="#E1E4E5"/>
    <path d="M206.062 72.2077C203.426 72.2077 201.289 70.0669 201.289 67.4261C201.289 64.7853 203.426 62.6445 206.062 62.6445C208.698 62.6445 210.835 64.7853 210.835 67.4261C210.835 70.0669 208.698 72.2077 206.062 72.2077Z"
          fill="#F9E15F"/>
    <path d="M37.5693 75.1131C37.9827 76.6585 37.0672 78.247 35.5245 78.6611C33.9818 79.0752 32.3962 78.1581 31.9828 76.6127C31.5695 75.0673 32.485 73.4788 34.0276 73.0647C35.5703 72.6506 37.1559 73.5677 37.5693 75.1131Z"
          fill="#E1E4E5"/>
    <path d="M95.4978 45.2896C93.3733 45.2896 91.6509 43.5642 91.6509 41.4358C91.6509 39.3074 93.3733 37.582 95.4978 37.582C97.6224 37.582 99.3447 39.3074 99.3447 41.4358C99.3447 43.5642 97.6224 45.2896 95.4978 45.2896Z"
          fill="#E1E4E5"/>
    <path d="M238.187 136.721C236.553 136.721 235.228 135.66 235.228 134.35C235.228 133.04 236.553 131.979 238.187 131.979C239.822 131.979 241.146 133.04 241.146 134.35C241.146 135.66 239.822 136.721 238.187 136.721Z"
          fill="#E1E4E5"/>
    <path d="M134.517 154.177C135.378 157.394 133.472 160.7 130.262 161.562C127.051 162.423 123.751 160.515 122.891 157.298C122.03 154.082 123.936 150.776 127.146 149.914C130.357 149.052 133.657 150.961 134.517 154.177Z"
          fill="#E1E4E5"/>
    <path d="M85.834 98.4961H85.9115C86.3701 105.003 91.2004 105.103 91.2004 105.103C91.2004 105.103 85.8738 105.207 85.8738 112.726C85.8738 105.207 80.5473 105.103 80.5473 105.103C80.5473 105.103 85.3758 105.003 85.834 98.4961ZM70.0308 120.43H70.0713C70.3108 123.963 72.8364 124.017 72.8364 124.017C72.8364 124.017 70.0517 124.074 70.0517 128.156C70.0517 124.074 67.2666 124.017 67.2666 124.017C67.2666 124.017 69.7913 123.963 70.0308 120.43Z"
          fill="#E1E4E5"/>
    <path d="M120.545 81.0314V67.2745C120.545 57.1447 128.743 48.9316 138.855 48.9316C148.967 48.9316 157.165 57.1447 157.165 67.2745V81.0314"
          stroke="#AFC4E9" stroke-width="8" stroke-linecap="round" stroke-linejoin="round"/>
    <path fill-rule="evenodd" clip-rule="evenodd"
          d="M165.945 137.139H111.765C105.778 137.139 100.929 132.281 100.929 126.283V88.2889C100.929 82.2915 105.778 77.4336 111.765 77.4336H165.945C171.932 77.4336 176.781 82.2915 176.781 88.2889V126.283C176.781 132.281 171.932 137.139 165.945 137.139Z"
          fill="#AFC4E9" stroke="#AFC4E9" stroke-width="5.13" stroke-linecap="round" stroke-linejoin="round"/>
    <path d="M138.484 98.5879C136.278 98.5879 134.487 100.382 134.503 102.592C134.503 104.802 136.293 106.596 138.5 106.596C140.706 106.596 142.497 104.802 142.497 102.592C142.497 100.382 140.706 98.5879 138.484 98.5879M138.499 120.31V106.697V120.31Z"
          stroke="white" stroke-width="8" stroke-linecap="round" stroke-linejoin="round"/>
    <path d="M158.161 157.754H104.589C98.1884 157.754 93 162.951 93 169.363C93 175.775 98.1884 180.972 104.589 180.972H158.161C164.561 180.972 169.75 175.775 169.75 169.363C169.75 162.951 164.561 157.754 158.161 157.754Z"
          fill="url(#paint3_linear_3009_752)"/>
    <path d="M165.761 149H112.188C105.788 149 100.6 154.198 100.6 160.609C100.6 167.021 105.788 172.218 112.188 172.218H165.761C172.161 172.218 177.349 167.021 177.349 160.609C177.349 154.198 172.161 149 165.761 149Z"
          fill="#31446C"/>
    <path d="M114.394 163.875H116.1L115.935 161.417L117.99 162.795L118.84 161.296L116.633 160.216L118.84 159.136L117.99 157.637L115.935 159.015L116.1 156.557H114.394L114.553 159.015L112.498 157.637L111.648 159.136L113.862 160.216L111.648 161.296L112.498 162.795L114.553 161.417L114.394 163.875ZM126.26 163.875H127.966L127.801 161.417L129.856 162.795L130.705 161.296L128.499 160.216L130.705 159.136L129.856 157.637L127.801 159.015L127.966 156.557H126.26L126.418 159.015L124.364 157.637L123.514 159.136L125.727 160.216L123.514 161.296L124.364 162.795L126.418 161.417L126.26 163.875ZM138.126 163.875H139.831L139.666 161.417L141.721 162.795L142.571 161.296L140.364 160.216L142.571 159.136L141.721 157.637L139.666 159.015L139.831 156.557H138.126L138.284 159.015L136.229 157.637L135.38 159.136L137.593 160.216L135.38 161.296L136.229 162.795L138.284 161.417L138.126 163.875ZM149.991 163.875H151.697L151.532 161.417L153.587 162.795L154.436 161.296L152.229 160.216L154.436 159.136L153.587 157.637L151.532 159.015L151.697 156.557H149.991L150.15 159.015L148.095 157.637L147.245 159.136L149.458 160.216L147.245 161.296L148.095 162.795L150.15 161.417L149.991 163.875ZM161.856 163.875H163.563L163.398 161.417L165.452 162.795L166.302 161.296L164.095 160.216L166.302 159.136L165.452 157.637L163.398 159.015L163.563 156.557H161.856L162.015 159.015L159.961 157.637L159.111 159.136L161.324 160.216L159.111 161.296L159.961 162.795L162.015 161.417L161.856 163.875Z"
          fill="white"/>
    <defs>
        <linearGradient id="paint0_linear_3009_752" x1="171.19" y1="87.6685" x2="147.427" y2="-18.9213"
                        gradientUnits="userSpaceOnUse">
            <stop stop-color="white"/>
            <stop offset="1" stop-color="#EEEEEE"/>
        </linearGradient>
        <linearGradient id="paint1_linear_3009_752" x1="197.671" y1="111.108" x2="279.168" y2="46.759"
                        gradientUnits="userSpaceOnUse">
            <stop stop-color="white"/>
            <stop offset="1" stop-color="#EEEEEE"/>
        </linearGradient>
        <linearGradient id="paint2_linear_3009_752" x1="78.0853" y1="71.3023" x2="38.0564" y2="34.1764"
                        gradientUnits="userSpaceOnUse">
            <stop stop-color="white"/>
            <stop offset="1" stop-color="#EEEEEE"/>
        </linearGradient>
        <linearGradient id="paint3_linear_3009_752" x1="133.011" y1="193.99" x2="132.795" y2="132.489"
                        gradientUnits="userSpaceOnUse">
            <stop stop-color="white"/>
            <stop offset="1" stop-color="#EEEEEE"/>
        </linearGradient>
    </defs>
</svg>
