<svg width="16" height="16" viewBox="0 0 16 16" fill="none" xmlns="http://www.w3.org/2000/svg">
    <path d="M14.7215 7.5983C14.1722 6.44111 13.5186 5.49736 12.7605 4.76705L11.9655 5.56205C12.6138 6.18158 13.1785 6.99205 13.6668 8.00143C12.3668 10.6921 10.5215 11.9702 7.9996 11.9702C7.24262 11.9702 6.54538 11.8536 5.90788 11.6205L5.04648 12.4819C5.93189 12.8907 6.91627 13.0952 7.9996 13.0952C11.0027 13.0952 13.2434 11.5311 14.7215 8.40299C14.7809 8.27718 14.8117 8.13978 14.8117 8.00065C14.8117 7.86151 14.7809 7.72411 14.7215 7.5983V7.5983ZM13.7282 2.5883L13.0621 1.92143C13.0505 1.9098 13.0367 1.90058 13.0215 1.89429C13.0064 1.888 12.9901 1.88477 12.9737 1.88477C12.9572 1.88477 12.941 1.888 12.9258 1.89429C12.9106 1.90058 12.8968 1.9098 12.8852 1.92143L11.1763 3.62955C10.2341 3.1483 9.17523 2.90768 7.9996 2.90768C4.99648 2.90768 2.75585 4.47174 1.27773 7.59986C1.21831 7.72567 1.1875 7.86308 1.1875 8.00221C1.1875 8.14134 1.21831 8.27874 1.27773 8.40455C1.86825 9.6483 2.57919 10.6452 3.41054 11.3953L1.7571 13.0483C1.73368 13.0717 1.72052 13.1035 1.72052 13.1367C1.72052 13.1698 1.73368 13.2016 1.7571 13.225L2.42413 13.8921C2.44757 13.9155 2.47935 13.9286 2.51249 13.9286C2.54563 13.9286 2.57741 13.9155 2.60085 13.8921L13.7282 2.76518C13.7398 2.75357 13.749 2.73978 13.7553 2.72461C13.7616 2.70943 13.7649 2.69317 13.7649 2.67674C13.7649 2.66031 13.7616 2.64405 13.7553 2.62887C13.749 2.6137 13.7398 2.59991 13.7282 2.5883ZM2.33241 8.00143C3.63398 5.3108 5.47929 4.03268 7.9996 4.03268C8.85179 4.03268 9.62663 4.17893 10.3296 4.47627L9.23116 5.57471C8.71096 5.29715 8.11532 5.19414 7.53211 5.28087C6.9489 5.36761 6.40901 5.63949 5.99209 6.05641C5.57516 6.47334 5.30328 7.01323 5.21655 7.59643C5.12982 8.17964 5.23283 8.77528 5.51038 9.29549L4.20695 10.5989C3.48554 9.96221 2.86366 9.09955 2.33241 8.00143ZM6.1871 8.00143C6.18738 7.7259 6.25264 7.45433 6.37759 7.20877C6.50254 6.9632 6.68365 6.75058 6.90621 6.58816C7.12878 6.42574 7.38651 6.31812 7.65849 6.27402C7.93046 6.22993 8.209 6.25061 8.47148 6.3344L6.27007 8.5358C6.21489 8.36305 6.1869 8.18277 6.1871 8.00143V8.00143Z"
          fill="#BABABA"/>
    <path d="M7.93859 9.75109C7.88453 9.75109 7.83125 9.74859 7.77844 9.74374L6.95312 10.5691C7.44951 10.7592 7.99034 10.8014 8.51023 10.6907C9.03012 10.58 9.5068 10.321 9.88266 9.94516C10.2585 9.5693 10.5175 9.09262 10.6282 8.57273C10.7389 8.05284 10.6967 7.51201 10.5066 7.01562L9.68124 7.84094C9.68609 7.89375 9.68859 7.94703 9.68859 8.00109C9.68871 8.23094 9.64353 8.45856 9.55563 8.67093C9.46772 8.88331 9.33883 9.07627 9.1763 9.2388C9.01377 9.40133 8.82081 9.53023 8.60843 9.61813C8.39606 9.70603 8.16844 9.75121 7.93859 9.75109V9.75109Z"
          fill="#BABABA"/>
</svg>
