<svg width="124" height="35" viewBox="0 0 124 35" fill="none" xmlns="http://www.w3.org/2000/svg">
    <g clip-path="url(#clip0_1731_218758)">
        <path opacity="0.99"
              d="M55.6203 26.9212H55.2348C54.4791 27.8796 53.5753 28.6987 52.5613 29.3445C51.5161 30.0194 50.1743 30.356 48.5356 30.3545C47.3606 30.3625 46.1937 30.1493 45.0909 29.7245C44.0562 29.3305 43.0998 28.7395 42.2701 27.9814C41.4662 27.2424 40.8248 26.3294 40.3905 25.3055C39.9332 24.2251 39.7031 23.0542 39.7157 21.8724C39.6986 20.6779 39.946 19.4955 40.4387 18.418C40.9226 17.3882 41.6151 16.4814 42.468 15.7608C43.3769 14.999 44.4159 14.4254 45.5298 14.0708C46.7705 13.6722 48.0624 13.4759 49.3601 13.4889C50.6381 13.4617 51.9149 13.5892 53.165 13.8689C53.8448 14.0416 54.4332 14.217 54.9584 14.4003C55.1128 14.4531 55.2819 14.4252 55.4134 14.3253C55.5449 14.2254 55.6228 14.0656 55.6229 13.8955C55.6424 12.6244 55.0887 11.4182 54.1289 10.6404C53.0778 9.76177 51.7618 9.3048 50.4178 9.35163C48.233 9.35163 46.3854 10.3109 44.8753 12.2294L40.3094 8.94773C42.8156 5.64924 46.2374 4 50.5751 4C54.2379 4 57.0333 4.9008 58.9611 6.70238C60.8889 8.50397 61.8529 11.1709 61.8529 14.7032V29.5464H55.6203V26.9212ZM55.6203 19.4995C54.8873 19.1315 54.123 18.8362 53.3374 18.6173C52.4947 18.3915 51.6275 18.2808 50.7577 18.2878C49.2492 18.2878 48.0849 18.6333 47.2647 19.3241C46.4905 19.9195 46.0334 20.8661 46.0346 21.8724C46.0123 22.8375 46.4569 23.7491 47.2166 24.2957C48.0047 24.9021 48.9607 25.2213 49.9384 25.2045C51.48 25.2215 52.9649 24.5953 54.0654 23.464C55.0667 22.411 55.6293 20.9857 55.6306 19.4995H55.6203Z"
              fill="#376DC8"/>
        <path opacity="0.99"
              d="M63.8619 4.81836H71.0431L76.923 20.5703H77.2604L83.1884 4.81836H90.3213L80.152 29.557H73.9349L63.8619 4.81836Z"
              fill="#376DC8"/>
        <path d="M21.8175 13.0126V29.5458H14.9026V14.4714C14.9087 13.8937 14.8229 13.319 14.649 12.7708C14.3255 11.7029 13.5164 10.8733 12.4903 10.5574C11.7995 10.331 11.0781 10.2242 10.3545 10.2411C9.68812 10.2344 9.02404 10.3238 8.38099 10.5069C7.8788 10.6461 7.38975 10.8328 6.91989 11.0649V29.5432H0V7.03124C0.747972 6.63888 1.52297 6.30579 2.31847 6.03478C3.35508 5.67347 4.41029 5.37363 5.4791 5.13665C6.62395 4.87623 7.77643 4.66543 8.93651 4.50423C10.0057 4.34848 11.0836 4.26681 12.1631 4.25977C14.2651 4.25977 16.0407 4.54408 17.4899 5.11273C18.8447 5.60582 19.9934 6.57717 20.7394 7.86029C21.4598 9.12335 21.8191 10.8408 21.8175 13.0126ZM14.7149 8.68668C15.7669 7.74916 16.9393 6.97098 18.1977 6.3749C19.5803 5.70284 21.0254 5.18193 22.5099 4.82044C23.8926 4.46498 25.3097 4.27686 26.7334 4.25977C28.8388 4.25977 30.6103 4.54408 32.0477 5.11273C33.4014 5.60636 34.5491 6.57766 35.2944 7.86029C36.0233 9.12335 36.3878 10.8408 36.3878 13.0126V29.5458H29.478V14.4714C29.484 13.8937 29.3984 13.319 29.2243 12.7708C28.9009 11.7029 28.0918 10.8733 27.0657 10.5574C26.3749 10.331 25.6534 10.2242 24.9299 10.2411C24.2609 10.2349 23.5955 10.3417 22.9589 10.5574C22.4286 10.7271 21.9326 10.9973 21.4953 11.3545L14.7149 8.68668Z"
              fill="#376DC8"/>
        <path d="M124 35.0005H117.613C116.441 35.0005 115.355 34.3573 114.751 33.3052L113.914 31.8464C113.172 32.1444 112.408 32.3834 111.631 32.5612C109.422 33.0643 107.134 33.0643 104.925 32.5612C98.9157 31.188 94.2221 26.2714 92.9112 19.9766C93.1599 18.7639 93.5413 17.5851 94.0477 16.4638C95.5213 13.201 97.9727 10.5323 101.028 8.86419C103.125 7.72131 105.443 7.09255 107.806 7.02539C103.194 7.27974 99.5083 11.1403 99.2655 15.9722V16.2061C99.2655 16.2938 99.2655 16.3814 99.2655 16.4718C99.2655 16.5621 99.2655 16.6471 99.2655 16.7375V16.9741C99.5135 21.8916 103.325 25.785 108.024 25.9208H108.532H108.752C108.882 25.9208 109.006 25.9208 109.133 25.9049H109.275C109.404 25.9049 109.529 25.889 109.663 25.8757C109.798 25.8623 109.942 25.8464 110.084 25.8305H110.173L110.427 25.796L110.368 25.6977L106.827 19.5063H113.219C114.389 19.5054 115.474 20.1481 116.076 21.199L117.133 23.0431L119.797 27.6639L124 35.0005Z"
              fill="#76BA55"/>
        <path d="M117.286 15.9732C117.04 11.0531 113.228 7.15569 108.527 7.01834H108.019H107.799C105.436 7.0855 103.118 7.71426 101.021 8.85714C97.965 10.5252 95.5136 13.194 94.04 16.4568C93.5336 17.5781 93.1522 18.7569 92.9037 19.9696C92.4214 17.655 92.4214 15.2586 92.9037 12.9439C94.2183 6.65049 98.9115 1.73538 104.92 0.359375C106.077 0.621631 107.202 1.02194 108.273 1.55247C111.387 3.09446 113.933 5.66187 115.523 8.86245C116.62 11.0609 117.223 13.4931 117.286 15.9732Z"
              fill="#F8C921"/>
        <path d="M115.525 8.86897C116.621 11.0652 117.223 13.4946 117.286 15.9717V16.2056C117.286 16.2932 117.286 16.3809 117.286 16.4713C117.286 16.5616 117.286 16.6466 117.286 16.737C117.27 17.2582 117.214 17.7771 117.118 18.2888L121.334 25.6387C123.71 21.9152 124.54 17.3407 123.635 12.9637C122.746 8.69423 120.274 4.96965 116.763 2.60953C113.252 0.249396 108.99 -0.552896 104.914 0.379183C106.072 0.641441 107.197 1.04175 108.268 1.57227C111.383 3.10943 113.931 5.67209 115.525 8.86897Z"
              fill="#E73F2A"/>
    </g>
    <defs>
        <clipPath id="clip0_1731_218758">
            <rect width="124" height="35" fill="white"/>
        </clipPath>
    </defs>
</svg>
