<svg width="280" height="187" viewBox="0 0 280 187" fill="none" xmlns="http://www.w3.org/2000/svg">
    <path d="M189.089 56.8817C186.432 61.6319 180.613 62.2848 171.291 61.3819C164.28 60.7018 157.886 60.1754 150.874 56.3457C145.966 53.6672 142.082 50.0432 139.246 46.5232C136.174 42.71 131.885 38.3581 133.987 34.0347C136.877 28.0956 153.585 23.0933 169.809 31.2733C187.631 40.2618 191.689 52.2388 189.089 56.8817Z"
          fill="url(#paint0_linear_2003_212007)"/>
    <path d="M235.562 95.813C225.695 100.716 212.599 94.4115 212.599 94.4115C212.599 94.4115 215.509 80.1596 225.382 75.263C235.249 70.3595 248.34 76.6577 248.34 76.6577C248.34 76.6577 245.429 90.9096 235.562 95.813Z"
          fill="url(#paint1_linear_2003_212007)"/>
    <path d="M58.8661 61.7033C63.8327 64.6853 70.9581 61.9287 70.9581 61.9287C70.9581 61.9287 70.0263 54.3386 65.0566 51.36C60.0904 48.378 52.9678 51.1313 52.9678 51.1313C52.9678 51.1313 53.8996 58.7213 58.8661 61.7033Z"
          fill="url(#paint2_linear_2003_212007)"/>
    <path d="M218.52 111.297C215.933 111.297 213.836 113.398 213.836 115.989C213.836 118.581 215.933 120.682 218.52 120.682C221.107 120.682 223.204 118.581 223.204 115.989C223.204 113.398 221.107 111.297 218.52 111.297Z"
          fill="#6FC8AD"/>
    <path d="M62.5084 75.8428C60.3788 75.8428 58.6524 77.5722 58.6524 79.7056C58.6524 81.8389 60.3788 83.5684 62.5084 83.5684C64.6379 83.5684 66.3643 81.8389 66.3643 79.7056C66.3643 77.5722 64.6379 75.8428 62.5084 75.8428Z"
          fill="#F6C294"/>
    <path d="M81.7083 149.365C79.283 149.365 77.3169 147.395 77.3169 144.966C77.3169 142.536 79.283 140.566 81.7083 140.566C84.1335 140.566 86.0996 142.536 86.0996 144.966C86.0996 147.395 84.1335 149.365 81.7083 149.365Z"
          fill="#F9E15F"/>
    <path d="M194.224 94.3325C193.092 94.3325 192.175 93.4133 192.175 92.2795C192.175 91.1457 193.092 90.2266 194.224 90.2266C195.356 90.2266 196.273 91.1457 196.273 92.2795C196.273 93.4133 195.356 94.3325 194.224 94.3325Z"
          fill="#F6C294"/>
    <path d="M73.6836 41.2106C72.2284 41.2106 71.0488 40.0289 71.0488 38.5711C71.0488 37.1134 72.2284 35.9316 73.6836 35.9316C75.1387 35.9316 76.3184 37.1134 76.3184 38.5711C76.3184 40.0289 75.1387 41.2106 73.6836 41.2106Z"
          fill="#E1E4E5"/>
    <path d="M50.2547 108.639C48.1528 108.639 46.4489 106.932 46.4489 104.826C46.4489 102.721 48.1528 101.014 50.2547 101.014C52.3566 101.014 54.0605 102.721 54.0605 104.826C54.0605 106.932 52.3566 108.639 50.2547 108.639Z"
          fill="#F4865A"/>
    <path d="M157.207 154.157C155.607 154.157 154.311 152.858 154.311 151.255C154.311 149.653 155.607 148.354 157.207 148.354C158.807 148.354 160.104 149.653 160.104 151.255C160.104 152.858 158.807 154.157 157.207 154.157Z"
          fill="#E1E4E5"/>
    <path d="M206.062 72.2077C203.426 72.2077 201.289 70.0669 201.289 67.4261C201.289 64.7853 203.426 62.6445 206.062 62.6445C208.698 62.6445 210.835 64.7853 210.835 67.4261C210.835 70.0669 208.698 72.2077 206.062 72.2077Z"
          fill="#F9E15F"/>
    <path d="M37.5693 75.1131C37.9827 76.6585 37.0672 78.247 35.5245 78.6611C33.9818 79.0752 32.3962 78.1581 31.9828 76.6127C31.5695 75.0673 32.485 73.4788 34.0276 73.0647C35.5703 72.6506 37.1559 73.5677 37.5693 75.1131Z"
          fill="#E1E4E5"/>
    <path d="M95.4978 45.2896C93.3733 45.2896 91.6509 43.5642 91.6509 41.4358C91.6509 39.3074 93.3733 37.582 95.4978 37.582C97.6224 37.582 99.3447 39.3074 99.3447 41.4358C99.3447 43.5642 97.6224 45.2896 95.4978 45.2896Z"
          fill="#E1E4E5"/>
    <path d="M238.187 136.721C236.553 136.721 235.228 135.66 235.228 134.35C235.228 133.04 236.553 131.979 238.187 131.979C239.822 131.979 241.146 133.04 241.146 134.35C241.146 135.66 239.822 136.721 238.187 136.721Z"
          fill="#E1E4E5"/>
    <path d="M134.517 154.177C135.378 157.394 133.472 160.7 130.262 161.562C127.051 162.423 123.751 160.515 122.891 157.298C122.03 154.082 123.936 150.776 127.146 149.914C130.357 149.052 133.657 150.961 134.517 154.177Z"
          fill="#E1E4E5"/>
    <path d="M85.834 98.4961H85.9115C86.3701 105.003 91.2004 105.103 91.2004 105.103C91.2004 105.103 85.8738 105.207 85.8738 112.726C85.8738 105.207 80.5473 105.103 80.5473 105.103C80.5473 105.103 85.3758 105.003 85.834 98.4961ZM70.0308 120.43H70.0713C70.3108 123.963 72.8364 124.017 72.8364 124.017C72.8364 124.017 70.0517 124.074 70.0517 128.156C70.0517 124.074 67.2666 124.017 67.2666 124.017C67.2666 124.017 69.7913 123.963 70.0308 120.43Z"
          fill="#E1E4E5"/>
    <path d="M120.545 81.0314V67.2745C120.545 57.1447 128.743 48.9316 138.855 48.9316C148.967 48.9316 157.165 57.1447 157.165 67.2745V81.0314"
          stroke="#AFC4E9" stroke-width="8" stroke-linecap="round" stroke-linejoin="round"/>
    <path fill-rule="evenodd" clip-rule="evenodd"
          d="M165.945 137.139H111.765C105.778 137.139 100.929 132.281 100.929 126.283V88.2889C100.929 82.2915 105.778 77.4336 111.765 77.4336H165.945C171.932 77.4336 176.781 82.2915 176.781 88.2889V126.283C176.781 132.281 171.932 137.139 165.945 137.139Z"
          fill="#AFC4E9" stroke="#AFC4E9" stroke-width="5.13" stroke-linecap="round" stroke-linejoin="round"/>
    <path d="M138.484 98.5879C136.278 98.5879 134.487 100.382 134.503 102.592C134.503 104.802 136.293 106.596 138.5 106.596C140.706 106.596 142.497 104.802 142.497 102.592C142.497 100.382 140.706 98.5879 138.484 98.5879M138.499 120.31V106.697V120.31Z"
          stroke="white" stroke-width="8" stroke-linecap="round" stroke-linejoin="round"/>
    <path d="M95.6505 39.6504H42.0778C35.6776 39.6504 30.4893 44.848 30.4893 51.2595C30.4893 57.671 35.6776 62.8686 42.0778 62.8686H95.6505C102.051 62.8686 107.239 57.671 107.239 51.2595C107.239 44.848 102.051 39.6504 95.6505 39.6504Z"
          fill="url(#paint3_linear_2003_212007)"/>
    <path d="M103.249 30.8965H49.6765C43.2763 30.8965 38.0879 36.0941 38.0879 42.5056C38.0879 48.9171 43.2763 54.1147 49.6765 54.1147H103.249C109.649 54.1147 114.838 48.9171 114.838 42.5056C114.838 36.0941 109.649 30.8965 103.249 30.8965Z"
          fill="#CCCCCC"/>
    <path d="M51.8836 45.7717H53.5894L53.4245 43.3133L55.4794 44.6918L56.329 43.1923L54.1223 42.1124L56.329 41.0325L55.4794 39.5331L53.4245 40.9119L53.5894 38.4531H51.8836L52.0422 40.9119L49.9876 39.5331L49.1377 41.0325L51.3509 42.1124L49.1377 43.1923L49.9876 44.6918L52.0422 43.3133L51.8836 45.7717ZM63.7493 45.7717H65.4552L65.2903 43.3133L67.3449 44.6918L68.1945 43.1923L65.9878 42.1124L68.1945 41.0325L67.3449 39.5331L65.2903 40.9119L65.4552 38.4531H63.7493L63.9077 40.9119L61.8531 39.5331L61.0035 41.0325L63.2164 42.1124L61.0035 43.1923L61.8531 44.6918L63.9077 43.3133L63.7493 45.7717ZM75.6148 45.7717H77.3206L77.1557 43.3133L79.2103 44.6918L80.0603 43.1923L77.8533 42.1124L80.0603 41.0325L79.2103 39.5331L77.1557 40.9119L77.3206 38.4531H75.6148L75.7732 40.9119L73.7186 39.5331L72.8689 41.0325L75.0822 42.1124L72.8689 43.1923L73.7186 44.6918L75.7732 43.3133L75.6148 45.7717ZM87.4803 45.7717H89.1861L89.0212 43.3133L91.0761 44.6918L91.9258 43.1923L89.7187 42.1124L91.9258 41.0325L91.0761 39.5331L89.0212 40.9119L89.1861 38.4531H87.4803L87.639 40.9119L85.5844 39.5331L84.7344 41.0325L86.9477 42.1124L84.7344 43.1923L85.5844 44.6918L87.639 43.3133L87.4803 45.7717ZM99.3458 45.7717H101.052L100.887 43.3133L102.942 44.6918L103.791 43.1923L101.585 42.1124L103.791 41.0325L102.942 39.5331L100.887 40.9119L101.052 38.4531H99.3458L99.5044 40.9119L97.4498 39.5331L96.5999 41.0325L98.8131 42.1124L96.5999 43.1923L97.4498 44.6918L99.5044 43.3133L99.3458 45.7717Z"
          fill="white"/>
    <path fill-rule="evenodd" clip-rule="evenodd"
          d="M208.161 132.773C208.161 145.822 198.355 158.024 185.176 160.987C171.997 158.024 162.191 145.822 162.191 132.773V122.523C162.192 121.381 162.532 120.265 163.168 119.318C163.804 118.37 164.707 117.634 165.763 117.203L180.128 111.324C183.364 109.999 186.989 109.999 190.224 111.324L204.59 117.203C205.645 117.634 206.548 118.371 207.184 119.318C207.82 120.265 208.16 121.381 208.161 122.523V132.773Z"
          fill="#376DC8"/>
    <path d="M194.498 129.783L183.741 140.559L177.287 134.094" stroke="white" stroke-width="4" stroke-linecap="round"
          stroke-linejoin="round"/>
    <defs>
        <linearGradient id="paint0_linear_2003_212007" x1="171.19" y1="87.6685" x2="147.427" y2="-18.9213"
                        gradientUnits="userSpaceOnUse">
            <stop stop-color="white"/>
            <stop offset="1" stop-color="#EEEEEE"/>
        </linearGradient>
        <linearGradient id="paint1_linear_2003_212007" x1="197.671" y1="111.108" x2="279.168" y2="46.759"
                        gradientUnits="userSpaceOnUse">
            <stop stop-color="white"/>
            <stop offset="1" stop-color="#EEEEEE"/>
        </linearGradient>
        <linearGradient id="paint2_linear_2003_212007" x1="78.0853" y1="71.3023" x2="38.0564" y2="34.1764"
                        gradientUnits="userSpaceOnUse">
            <stop stop-color="white"/>
            <stop offset="1" stop-color="#EEEEEE"/>
        </linearGradient>
        <linearGradient id="paint3_linear_2003_212007" x1="70.5006" y1="75.8863" x2="70.284" y2="14.3855"
                        gradientUnits="userSpaceOnUse">
            <stop stop-color="white"/>
            <stop offset="1" stop-color="#EEEEEE"/>
        </linearGradient>
    </defs>
</svg>
